<svg width="550" height="417" viewBox="0 0 550 417" fill="none" xmlns="http://www.w3.org/2000/svg">
<path fill-rule="evenodd" clip-rule="evenodd" d="M396.559 307.335C394.133 310.171 390.55 312.277 387.801 314.87C384.915 317.594 381.782 319.974 378.907 322.665C366.224 306.995 348.849 297.386 333.798 284.382C326.662 278.217 321.405 269.854 317.558 261.272C315.585 256.873 314.128 252.344 312.988 247.657C312.474 245.546 311.973 243.442 311.637 241.302C311.23 238.711 311.125 238.49 309.395 236.467C308.651 235.597 307.209 233.054 305.75 233.334C304.523 233.57 302.279 237.347 301.503 238.279C297.773 242.766 294.157 247.389 290.231 251.701C284.223 258.301 278.754 264.794 273.176 271.789C261.765 286.099 249.457 299.569 237.037 313.035C236.116 314.034 233.968 316.961 232.644 317.355C231.035 317.833 228.42 315.838 226.8 314.723C222.888 312.031 219.805 308.698 216.461 305.362C209.935 298.851 205.517 289.711 202.544 281.015C200.765 275.809 199.608 270.413 197.772 265.226C197.006 263.063 195.271 260.406 196.152 258.523C196.414 257.962 198.084 256.471 198.672 256.357C199.368 256.221 200.529 257.186 200.771 257.119C203.08 256.48 201.799 254.036 203.173 252.721C203.952 251.975 207.913 252.084 209.095 251.674C213.42 250.174 217.299 247.314 221.387 245.606C238.501 238.459 255.823 231.506 270.598 219.834C274.429 216.807 276.975 214.533 281.547 212.577C286.167 210.6 290.812 208.836 295.526 207.111C299.685 205.589 303.867 204.163 308.164 203.071C312.81 201.892 319.401 200.396 324.043 201.915C333.16 204.899 336.104 212.492 339.734 220.503C344.646 231.341 350.585 241.596 357.023 251.572C369.409 270.764 384.472 287.987 396.559 307.335Z" fill="#64C5FF"/>
<path fill-rule="evenodd" clip-rule="evenodd" d="M122.01 137.659C121.508 137.402 117.592 139.013 116.934 139.26C114.308 140.244 111.835 141.881 109.361 143.212L115.049 150.211C116.907 145.603 119.296 141.801 122.01 137.659ZM123.303 166.33C122.658 166.404 128.104 179.634 128.74 181.12C131.054 186.522 133.484 191.873 135.829 197.262C138.101 202.486 140.983 207.29 143.887 212.169C146.37 216.342 148.925 222.817 152.671 225.908C150.306 215.3 150.617 203.102 143.833 194.194C136.8 184.96 129.846 175.943 123.303 166.33ZM396.559 307.806C386.049 290.982 372.894 276.099 361.934 259.575C355.798 250.323 349.825 240.953 344.66 231.104C340.903 223.94 338.567 213.718 332.764 208.242C330.207 205.829 327.475 203.467 324.043 202.386C319.348 200.907 312.882 202.373 308.164 203.543C299.373 205.722 290.786 209.105 282.459 212.659C274.013 216.263 266.807 222.738 259.176 227.939C250.99 233.52 242.128 237.585 232.957 241.144C224.971 244.243 217.867 248.691 209.923 251.81C208.34 252.432 205.11 252.34 203.783 253.151C202.352 254.024 202.915 256.601 201.178 257.551C200.394 257.98 200.133 256.425 199.532 256.451C198.796 256.482 198.125 257.355 197.416 257.907C194.529 260.159 196.298 261.66 197.441 264.759C201.167 274.854 203.169 285.124 208.401 294.654C212.702 302.488 218.858 309.507 226.105 314.693C227.208 315.483 230.802 318.541 232.096 318.337C233.261 318.155 235.631 315.024 236.436 314.174C240.085 310.315 243.421 306.165 247.069 302.301C252.705 296.328 258.131 290.196 263.601 284.143C269.951 277.115 275.57 269.152 281.29 261.644C283.92 258.189 287.307 255.376 290.231 252.173C294.163 247.866 297.773 243.235 301.504 238.75C302.632 237.393 304.522 233.921 306.276 233.961C307.505 233.99 309.672 236.915 310.314 237.832C312.703 241.239 312.693 247.392 313.881 251.645C316.78 262.016 322.008 272.145 329.178 280.147C336.307 288.106 345.44 293.765 353.873 300.161C363.008 307.092 371.663 314.185 378.907 323.136C381.782 320.446 384.915 318.065 387.802 315.341C390.551 312.747 394.134 310.643 396.559 307.806ZM261.278 355.403C263.321 355.424 266.781 356.695 268.609 355.93C263.187 349.865 258.208 344.662 251.349 340.218C244.231 335.606 237.136 331.035 230.222 326.116C216.289 316.202 206.041 304.445 200.221 287.936C198.722 283.684 197.719 279.226 196.62 274.855C196.029 272.501 194.853 261.49 192.856 260.539C191.672 259.976 182.767 266.303 181.356 267.091C178.057 268.936 174.746 270.365 171.335 271.809C164.004 274.912 156.447 277.279 148.672 279.255C139.352 281.624 133.003 277.704 127.229 270.299C120.679 261.897 115.235 252.417 109.246 243.594C106.522 239.581 104.266 235.574 102.254 231.148C100.938 228.252 95.7167 220.438 97.5208 217.352C102.668 221.314 104.52 229.19 108.026 234.495C112.396 241.105 117.321 247.338 121.713 253.943C125.407 259.496 129.175 266.226 134.632 270.219C139.433 273.73 143.993 272.651 149.159 271.072C155.42 269.16 161.909 268.217 168.045 265.845C174.686 263.279 180.968 259.637 187.447 256.668C190.467 255.284 194.083 254.497 196.93 252.771C199.383 251.284 199.017 250.499 199.197 247.333C199.407 243.639 199.649 239.943 199.811 236.246C199.92 233.762 198.591 230.394 199.493 228.539C192.137 229.828 184.949 231.555 177.645 233.082C173.646 233.919 169.79 234.952 165.751 235.609C164.211 235.859 162.106 235.853 160.727 236.531C159.627 236.212 159.067 236.415 159.045 237.139C158.992 237.533 158.909 237.921 158.795 238.303C156.539 239.34 155.228 237.116 153.272 234.982C150.858 232.348 149.051 229.383 147.28 226.288C143.32 219.37 138.756 212.863 135.092 205.749C131.358 198.498 128.325 190.734 125.158 183.211C122.254 176.308 120.394 168.844 117.184 162.105C115.751 159.097 113.936 156.61 111.816 154.068C110.067 151.972 107.375 147.448 104.763 146.485C104.072 146.23 102.263 146.658 101.478 146.602C99.9142 146.489 98.5204 145.908 96.9198 146.035C93.4544 146.309 89.6763 148.525 86.907 150.472C88.6966 152.085 93.1734 154.045 89.9578 156.95C86.8372 159.77 85.1136 154.711 83.9228 152.495C78.3154 157.15 79.1259 163.568 78.4781 170.145C78.1398 173.579 77.2498 176.961 76.6756 180.342C76.262 182.777 76.5521 185.294 76.4339 187.78C76.1326 194.094 75.5047 200.14 75.5342 206.367C75.5675 213.022 76.016 219.45 76.5429 226.057C77.4297 237.182 79.4616 248.31 81.204 259.346C82.1842 265.549 83.5259 271.576 84.8284 277.679C86.3065 284.606 89.0409 291.166 90.5744 298.075C92.1368 296.067 93.312 296.058 95.8391 296.324C97.7829 296.528 99.0886 296.061 98.9748 298.788C98.9012 300.557 97.3575 301.908 95.6495 302.217C93.4221 302.619 92.6653 301.496 91.5175 299.79C91.249 303.02 93.3974 306.397 94.2471 309.551C95.0512 312.54 95.584 315.469 96.9354 318.331C98.254 321.122 99.383 323.874 100.717 326.638C101.332 327.91 101.906 329.202 102.528 330.47C102.842 331.113 103.212 331.998 103.681 332.539C104.781 333.808 104.606 333.193 105.893 333.916C108.698 335.491 107.645 335.099 107.71 338.351C107.774 341.559 109.402 343.916 112.011 345.719C117.549 349.546 123.01 350.611 129.305 352.544C135.17 354.346 141.348 355.892 147.558 355.856C155.165 355.813 162.671 354.805 170.277 354.703C178.669 354.591 187.141 354.637 195.516 354.93C198.966 355.051 202.17 355.206 205.5 356.096C209.368 357.131 213.109 356.721 217.096 356.563C225.6 356.229 234.398 355.564 242.792 355.504C248.835 355.461 255.212 355.035 261.278 355.403ZM481.809 358.736C483.321 359.543 486.71 359.212 488.23 358.988C490.907 358.593 491.194 357.52 492.893 355.106C495.817 350.95 498.191 346.97 499.911 342.155C503.204 332.94 504.548 323.513 505.994 313.874C507.6 303.163 504.666 292.061 503.617 281.423C503.376 278.983 503.046 276.564 502.665 274.142C502.436 272.694 502.377 267.768 501.434 266.514C499.623 264.105 491.201 266.048 487.89 266.266C478.647 266.877 469.344 267.02 460.106 267.125C455.18 267.182 450.227 267.39 445.35 267.429C443.11 267.447 440.92 267.334 438.672 267.114C437.92 267.041 437.186 266.866 436.429 266.824C433.836 266.679 434.031 266.299 433.36 268.62C432.186 272.687 433.09 277.861 432.781 282.082C432.369 287.722 432.146 293.442 432.248 299.094C432.342 304.318 432.166 309.529 432.359 314.764C432.44 316.932 432.674 318.699 433.239 320.769C433.879 323.11 434.583 328.579 436.176 330.199C436.357 330.383 437.711 329.953 438.07 330.413C438.624 331.12 438.522 332.617 438.903 333.074C440.133 334.555 442.676 334.672 444.521 335.337C449.584 337.161 454.228 339.143 458.999 341.604C463.262 343.802 470.135 345.674 472.698 350.011C473.873 351.999 474.032 354.621 475.112 356.672C476.343 359.009 473.881 357.788 476.896 358.736C478.253 359.162 480.417 358.736 481.809 358.736ZM32.3796 332.305C31.9962 337.702 28.9889 342.842 27.9421 348.148C27.4522 350.632 26.6213 353.075 26.0455 355.545C25.4934 357.914 23.4985 360.72 23.7005 363.065C31.0632 360.413 38.521 359.746 46.2161 359.031C53.5095 358.353 61.2144 358.083 68.4465 358.08C75.8162 358.076 83.6962 357.348 91.2844 357.235C99.2202 357.118 107.276 356.91 115.097 356.078C111.007 353.015 105.89 350.141 102.87 345.88C99.5876 341.249 97.8828 335.447 94.9942 330.561C89.1978 320.754 85.5127 308.585 82.4742 297.568C76.3399 275.327 69.4848 253.496 67.8326 230.427C64.6884 232.055 62.1924 238.37 60.6182 241.514C58.6089 245.53 57.5567 249.882 56.2504 254.15C53.5606 262.94 51.6989 272.055 48.4054 280.761C42.1105 297.404 38.0644 315.337 32.3796 332.305ZM432.049 202.678C433.411 212.626 436.266 222.701 436.376 232.769C436.4 234.983 436.029 237.443 436.485 239.626C436.973 241.958 438.559 244.019 439.475 246.235C440.928 249.753 444.609 256.962 441.059 259.943C440.987 257.114 438.427 253.522 437.137 251.049C435.193 247.323 432.639 243.916 430.532 240.282C426.122 232.675 421.179 225.232 415.495 218.526C409.958 211.994 403.578 206.2 397.706 199.98C395.943 198.111 381.792 180.124 381.23 180.376C385.619 197.487 393.08 212.375 403.291 226.702C408.298 233.725 414.306 238.347 420.401 244.297C425.476 249.252 435.041 254.55 433.287 262.669C441.22 261.898 449.102 260.666 457.107 260.666C455.791 250.423 454.783 240.342 452.432 230.268C449.764 218.827 447.957 207.046 445.699 195.505C443.395 183.722 439.486 172.315 437.055 160.555C434.731 149.318 432.719 138.017 431.019 126.666C429.609 132.976 430.129 139.906 429.628 146.343C429.117 152.92 429.167 159.376 429.337 165.992C429.652 178.279 430.948 190.419 432.049 202.678ZM466.427 144.093C466.472 138.833 467.48 133.645 467.791 128.397C467.887 126.788 469.473 115.804 467.994 115.23C466.777 117.912 466.493 121.343 465.389 124.156C464.285 126.966 462.808 129.644 461.749 132.474C459.455 138.604 458.663 145.541 458.416 152.058C457.857 166.802 457.568 181.511 458.548 196.254C458.968 202.573 459.29 208.903 459.175 215.234C459.049 222.201 457.994 228.248 459.275 235.158C460.544 242.001 461.341 248.815 461.764 255.757C462.06 260.63 462.179 260.285 466.778 259.943C470.098 259.695 473.451 259.959 476.775 259.806C475.221 240.815 474.967 221.785 472.484 202.867C471.217 193.215 471.183 183.425 469.609 173.809C468.827 169.033 467.515 164.352 466.761 159.57C465.952 154.436 466.35 149.267 466.427 144.093ZM130.139 132.142C138.992 132.917 148.409 135.593 157.484 133.826C155.988 133.214 152.073 132.369 153.835 129.951C155.626 127.493 158.645 130.611 160.431 130.289C161.533 130.09 163.967 125.435 164.646 124.472C166.187 122.281 166.373 121.9 169.144 121.338C171.828 120.795 172.437 121.383 172.777 118.685C173.167 115.583 172.105 112.095 172.211 108.922C172.437 102.092 174.616 96.1028 176.645 89.6767C168.026 91.5717 159.598 93.8196 150.785 95.0413C147.018 95.5641 141.157 96.769 137.735 94.1801C136.845 93.5068 136.987 92.5979 136.259 91.8176C135.037 90.5085 132.772 89.1544 131.04 88.7814C120.38 86.4873 119.34 101.85 124.682 107.598C126.02 109.038 127.881 109.75 129.252 111.07C131.08 112.83 131.23 114.684 131.497 117.371C131.998 122.41 131.318 127.468 129.191 132.078L130.139 132.142ZM259.499 204.666C262.646 205.27 265.93 205.132 269.085 205.647C270.206 205.83 273.567 206.469 274.553 205.806C276.058 204.795 276.593 201.085 277.304 199.357C278.556 196.318 280.327 193.667 281.52 190.573C286.397 177.934 290.945 165.243 296.843 153.036C294.582 152.442 292.847 152.419 290.568 152.112C288.195 151.792 286.043 150.374 283.779 149.764C281.626 149.184 279.372 149.332 277.239 148.658C276.065 148.287 275.056 147.463 273.898 147.174C272.052 146.716 269.898 146.447 268.8 147.672C267.675 148.929 267.28 152.374 266.668 153.997C265.037 158.32 263.143 162.493 261.777 166.916C260.544 170.905 259.373 174.852 258.288 178.878C257.142 183.128 254.883 186.63 253.507 190.69C252.46 193.78 251.472 196.939 251.316 200.234C251.164 203.448 250.701 203.653 253.881 204.167C255.487 204.426 257.989 205.39 259.499 204.666ZM466.549 355.131C467.369 355.517 468.142 355.466 468.867 354.977C461.761 351.943 454.849 347.735 447.436 345.653C440.482 343.701 433.723 341.369 427.023 338.964C421.58 337.011 416.686 335.49 411.764 332.052C408.777 329.965 406.123 327.618 404.07 324.568C401.785 321.173 401.276 316.34 398.801 313.282C395.46 316.991 391.536 319.8 387.583 322.747C386.215 323.767 382.935 325.99 382.468 327.568C381.877 329.559 383.458 331.463 384.241 333.478C386.243 338.639 387.222 343.796 388.309 349.162C388.744 351.312 389.685 354.544 391.432 355.445C393.023 356.264 397.63 355.668 399.61 355.516C409.939 354.725 420.084 353.915 430.475 354.636C442.233 355.45 454.822 356.014 466.549 355.131ZM487.179 259.508C489.056 259.515 490.89 259.277 492.76 259.277C491.681 254.182 494.205 247.587 495.099 242.501C496.101 236.811 496.863 230.928 497.53 225.193C498.938 213.111 499.575 201.178 499.593 189.009C499.611 177.234 501.731 166.473 504.701 155.153C507.891 142.996 513.113 132.064 517.432 120.339C512.695 122.871 510.073 128.793 507.584 133.322C504.438 139.048 502.342 145.387 501.057 151.815C498.578 164.215 495.859 176.652 492.999 189.031C490.021 201.921 488.27 214.929 484.858 227.712C483.194 233.947 480.932 241.617 480.806 248.047C480.754 250.706 479.961 256.276 481.154 258.586C482.269 260.747 484.734 259.729 487.179 259.508ZM203.827 243.516C203.728 244.839 203.634 246.098 203.402 247.406C206.002 247.381 209.295 244.653 211.525 243.429C214.242 241.938 216.962 240.292 219.619 238.793C224.748 235.898 230.571 233.991 236.048 231.613C242.34 228.88 248.123 225.579 254.14 222.29C256.241 221.141 271.346 214.522 271.093 212.714L261.144 212.38C258.301 212.284 253.898 212.933 251.175 212.045C249.684 211.558 248.01 209.766 247.447 208.362C246.89 206.973 248.142 200.585 247.414 200.178C243.703 204.009 241.369 209.1 238.051 213.233C234.384 217.8 229.645 220.467 224.423 222.894C218.656 225.575 212.687 227.651 206.794 229.947C204.308 230.916 204.357 231.471 204.141 234.226C203.899 237.305 203.925 240.428 203.827 243.516ZM503.505 359.363C509.757 360.042 516.163 359.655 522.463 360.183C524.756 360.376 527.934 360.663 525.628 363.772C524.175 365.732 519.523 365.104 517.413 365.239C511.747 365.603 505.748 365.408 500.069 365.323C498.873 365.306 497.552 364.946 496.343 365.027C494.948 365.119 493.278 366.134 492.007 366.127C491.223 366.121 490.942 365.286 490.266 365.209C488.794 365.042 487.323 364.92 485.838 364.921C463.392 364.926 441.255 364.469 418.865 364.445C408.159 364.434 397.28 364.247 386.579 363.739C384.331 363.632 371.533 364.096 371.888 360.006C372.07 357.899 376.247 357.602 377.771 357.378C378.901 357.213 380.073 357.239 381.204 357.177C384.211 357.014 385.528 357.746 384.894 354.42C382.488 341.806 378.177 331.381 368.967 322.311C361.435 314.894 352.367 308.167 343.836 301.974C333.479 294.454 325.076 286.545 318.927 275.038C315.336 268.318 312.33 261.448 310.485 254.018C309.821 251.345 309.805 248.305 308.992 245.728C308.366 243.744 306.939 242.356 306.099 240.301C295.794 257.701 282.136 272.258 269.613 287.946C263.629 295.442 256.803 302.561 249.653 309.081C247.532 311.016 245.552 313.037 243.572 315.119C241.915 316.862 239.285 318.411 237.887 320.345C236.545 322.199 236.875 322.111 238.918 323.584C241.617 325.53 244.592 327.148 247.334 329.046C251.717 332.081 256.501 334.644 260.42 338.297C264.658 342.246 268.361 346.821 272.065 351.275C274.534 354.243 277.774 358.052 278.395 361.805C278.601 363.047 279.382 366.118 278.351 367.027C277.47 367.804 277.559 367.51 276.465 367.036C275.032 366.414 274.611 364.989 272.86 364.31C268.381 362.572 262.961 363.169 258.301 363.148C253.639 363.126 248.938 363.656 244.278 363.637C233.637 363.593 223.222 364.463 212.584 364.931C201.286 365.427 189.848 364.236 178.587 364.404C170.244 364.529 161.678 363.899 153.104 364.368C148.694 364.608 144.363 364.051 140.063 363.988C134.433 363.906 128.651 364.681 122.972 364.791C113.652 364.973 104.446 364.972 95.0694 365.198C74.8999 365.686 54.8394 366.19 34.6581 366.513C31.9661 366.556 29.019 366.464 26.3587 366.77C23.5351 367.096 24.9928 367.702 23.0554 368.73C17.6317 371.606 18.8842 360.944 19.0142 358.848C19.7114 347.61 22.5334 336.589 25.9247 325.921C29.142 315.803 31.7539 305.212 34.4787 294.876C37.4612 283.562 41.3472 272.711 44.876 261.508C48.4919 250.029 51.4358 238.102 58.003 227.926C59.4988 225.609 61.0446 223.115 63.4509 221.654C66.1483 220.016 66.2643 220.973 66.2621 217.975C66.2605 215.151 66.4324 211.379 65.7734 208.685C65.1777 206.251 65.2695 207.694 63.9284 205.946C62.837 204.523 61.6951 203.551 60.912 201.825C56.1016 206.756 45.0903 204.154 40.4427 200.603C34.7542 196.258 30.4213 188.926 28.8337 181.943C27.5586 176.336 29.1232 165.648 35.2623 162.951C38.2551 161.637 49.2476 160.643 49.6875 156.359C49.9141 154.148 46.0453 151.038 45.1526 149.137C43.4984 145.614 41.9096 140.928 41.4498 137.066C40.5518 129.529 43.9366 121.101 49.3287 116.009C59.2201 106.669 76.624 101.876 89.3476 107.802C86.6588 97.4184 85.0357 88.461 86.3898 77.6603C87.5564 68.3554 92.9871 63.1494 100.46 58.5147C113.212 50.6047 130.553 47.4826 145.134 49.7826C148.447 50.3055 151.627 51.4267 154.695 52.3183C159.152 53.6149 164.488 53.1832 168.696 55.2883C171.747 56.8152 174.064 59.8558 176.744 61.8854C179.873 64.256 182.472 67.7929 184.646 71.0648C189.295 78.0604 187.478 91.0439 183.587 98.0661C182.753 99.5723 181.722 100.84 180.342 101.868C178.905 102.938 176.714 103.27 175.973 104.658C174.076 108.212 175.906 115.905 176.159 119.746C176.454 124.206 174.223 127.556 169.221 127.911C166.327 128.118 166.234 126.421 164.849 129.913C163.951 132.177 163.135 134.642 161.839 136.718C159.166 140.995 154.272 140.577 149.814 140.462C144.654 140.327 139.571 139.503 134.407 138.983C135.771 143.4 139.504 146.828 141.835 150.763C144.987 156.085 146.884 160.497 147.396 166.697C147.789 171.461 146.941 175.224 143.716 178.769C142.381 180.237 141.198 180.309 141.529 182.002C141.731 183.035 143.498 184.739 144.123 185.563C145.777 187.743 147.697 189.745 149.153 192.073C154.754 201.034 156.408 214.693 156.422 225.123C156.422 225.601 156.675 226.618 156.466 227.113C156.311 227.478 155.136 228.635 155.119 228.735C154.889 230.076 156.182 232.375 158.212 232.602C160.344 232.841 164.248 231.042 166.231 230.452C169.404 229.506 172.639 228.808 175.805 227.836C180.919 226.267 186.009 225.017 191.208 223.787C193.557 223.232 195.919 222.77 198.276 222.251C200.961 221.66 202.208 220.518 203.593 223.279C204.782 225.649 204.043 226.078 206.922 224.884C209.782 223.698 212.575 222.227 215.366 220.888C220.29 218.528 226.153 216.423 230.4 212.938C237.483 207.123 240.107 197.863 246.887 191.694C248.775 189.976 249.901 189.945 251.094 187.565C252.372 185.018 253.031 181.752 253.703 179.012C254.879 174.214 255.717 169.4 256.784 164.606C258.113 158.635 260.986 153.227 263.083 147.531C263.9 145.312 264.323 142.491 265.64 140.497C265.989 139.968 266.657 139.67 266.929 139.232C267.866 137.73 267.856 137.317 268.099 135.51C269.235 127.064 274.222 131.507 279.672 133.444C281.968 134.26 292.871 139.552 288.708 143.072C293.67 144.527 301.619 143.736 301.553 150.926C301.518 154.61 299.339 158.551 298.169 162C297.129 165.061 296.125 168.135 295.07 171.192C292.757 177.889 289.952 184.385 287.696 191.102C286.667 194.163 285.818 197.296 284.387 200.185C283.124 202.734 280.066 205.543 279.562 208.33C292.787 202.626 305.022 194.38 319.826 194.905C326.307 195.135 332.19 197.889 335.77 203.651C340.258 210.872 343.211 218.957 347.597 226.246C363.555 252.758 382.588 276.845 400.107 302.26C401.452 304.213 403.183 306.06 403.65 308.473C403.954 310.048 403.363 311.622 403.728 313.136C404.486 316.279 408.315 320.204 410.912 322.011C415.889 325.474 423.979 330.359 430.19 329.926C426.292 320.457 426.344 310.081 426.525 299.98C426.697 290.386 427.723 280.868 428.941 271.371C429.216 269.223 429.457 267.232 430.067 265.149C430.768 262.76 431.731 262.987 429.631 260.839C426.4 257.533 422.556 254.812 419.299 251.464C412.253 244.224 405.033 238.55 399.487 229.904C394.214 221.681 388.651 213.219 384.747 204.214C380.728 194.944 379.122 185.044 377.127 175.227C376.318 171.243 373.366 166.796 373.959 162.635C374.708 157.378 377.12 161.206 378.102 164.036C381.098 172.673 388.113 180.403 393.924 187.349C400.201 194.853 407.879 201.131 414.432 208.416C421.567 216.352 426.455 225.471 432.801 233.941C432.801 223.429 429.25 212.725 427.798 202.326C426.52 193.174 426.119 183.992 425.311 174.8C423.477 153.918 425.062 132.421 427.636 111.689C428.86 101.843 428.166 92.2287 428.203 82.3488C428.215 79.2045 426.927 71.9575 428.568 69.1672C431.711 63.8227 433.544 75.509 433.703 77.2514C434.653 87.6308 432.949 97.8946 433.819 108.229C434.729 119.022 436.704 129.512 438.384 140.179C440.204 151.73 443.167 163.02 446.004 174.348C448.983 186.244 451.488 198.387 454.8 210.186C455.693 206.477 454.44 201.921 454.193 198.143C453.839 192.738 453.149 187.331 453.089 181.911C452.994 173.272 452.927 164.474 453.411 155.877C453.887 147.402 453.743 138.522 456.314 130.357C457.534 126.482 459.324 122.701 461.075 119.051C463.235 114.55 463.999 110.185 465.195 105.398C466.22 101.298 467.72 97.306 468.402 93.124C468.827 90.5232 470.011 82.8456 472.957 88.6625C474.667 92.0386 473.928 97.0437 473.975 100.671C474.037 105.321 473.332 109.841 473.225 114.472C473.014 123.557 472.864 132.632 472.193 141.701C471.49 151.217 472.104 159.744 473.895 169.121C475.855 179.384 476.428 189.669 477.444 200.058C477.968 205.422 478.851 210.756 479.277 216.128C479.503 218.972 478.346 227.129 480.362 229.155C480.557 224.228 481.954 219.297 483.012 214.496C484.266 208.808 484.773 202.829 485.697 197.06C487.194 187.714 490.099 178.788 492.021 169.546C495.982 150.495 499.273 126.009 515.874 113.54C518.046 111.908 520.433 110.704 522.781 109.361C524.111 108.601 526.086 106.634 527.607 106.291C529.267 105.916 529.959 106.207 530.632 108.154C531.571 110.869 529.855 112.137 528.252 114.108C522.708 120.93 520.339 129.675 516.916 137.676C509.076 155.995 505.607 175.319 505.568 195.122C505.547 205.489 504.839 215.488 503.746 225.792C502.569 236.881 501.019 248.609 497.687 259.277C501.029 260.034 504.656 258.905 505.563 262.833C505.786 263.798 505.383 264.938 505.629 266.194C505.869 267.415 506.445 268.629 506.786 269.829C507.491 272.312 507.864 274.762 508.206 277.312C509.531 287.166 511.807 296.538 512.049 306.529C512.272 315.765 510.483 325.122 508.835 334.179C507.175 343.302 502.414 351.079 498.665 359.33C500.279 359.33 501.892 359.346 503.505 359.363Z" fill="black"/>
<path fill-rule="evenodd" clip-rule="evenodd" d="M291.347 338.392C289.569 338.9 280.986 339.859 280.988 342.581C280.989 344.214 289.56 344.182 291.077 344.359L291.347 338.392M310.291 357.178C315.237 358.129 321.95 356.792 325.112 352.384C326.59 350.325 327.29 347.192 327.771 344.734C328.231 342.392 329.648 336.547 328.684 334.351C327.499 331.655 316.136 334.473 312.827 334.782C307.053 335.321 301.083 335.385 295.306 335.004C295.306 341.034 295.001 346.911 298.509 352.102C301.041 355.846 305.794 356.73 310.291 357.178M309.297 364.626C303.923 362.638 298.281 363.93 294.782 358.098C293.894 356.619 293.146 355.028 292.609 353.384C292.347 352.665 292.142 351.925 291.997 351.172C292.271 349.546 291.682 349.088 290.23 349.796C287.382 349.237 284.259 351.213 281.259 350.63C273.982 349.217 275.304 338.68 280.187 335.032C281.152 334.311 282.115 334.111 283.22 333.755C285.654 332.971 286.971 333.847 289.198 333.624C290.997 333.444 291.492 331.537 293.425 330.697C294.691 330.147 296.449 330.19 297.779 330.134C304.745 329.845 311.732 329.848 318.742 329.389C322.011 329.175 325.542 329.698 328.744 329.134C330.243 328.869 330.028 327.86 331.448 328.745C332.918 329.661 332.283 333.051 332.209 334.403C331.78 342.217 331.32 350.598 327.179 357.43C323.39 363.682 315.935 364.321 309.297 364.626ZM25.4951 366.78C27.2241 366.761 28.9525 366.742 30.6755 366.724L25.4951 366.78ZM65.7789 207.05L65.7627 211.952C65.7676 210.316 65.773 208.682 65.7789 207.049M209.493 364.926C210.868 364.928 212.244 364.929 213.613 364.933C212.235 364.931 210.864 364.929 209.493 364.926ZM125.974 364.592C127.349 364.596 128.724 364.601 130.093 364.606C128.716 364.602 127.345 364.597 125.974 364.592ZM503.505 359.363C502.442 359.352 501.379 359.341 500.316 359.329C501.384 358.879 502.447 358.899 503.505 359.363ZM409.132 364.251C409.895 364.239 410.658 364.227 411.414 364.214C410.649 364.225 409.891 364.238 409.132 364.251ZM505.164 213.777L505.221 211.277L505.164 213.777M265.622 363.181C266.301 363.191 266.979 363.201 267.652 363.21C266.973 363.199 266.297 363.19 265.622 363.181ZM440.348 364.587C441.01 364.6 441.674 364.614 442.331 364.628L440.348 364.588M511.973 303.932C511.925 303.175 511.877 302.419 511.83 301.664C511.879 302.421 511.926 303.177 511.973 303.932ZM500.069 365.323C500.607 365.319 501.144 365.317 501.682 365.315C501.144 365.319 500.607 365.322 500.069 365.323Z" fill="black"/>
<path fill-rule="evenodd" clip-rule="evenodd" d="M306.383 364.209C306.973 364.206 307.561 364.203 308.144 364.198L306.384 364.209M295.72 144.603L293.174 144.381C294.024 144.442 294.922 143.933 295.72 144.604M505.397 209.077L505.381 206.934C505.837 207.647 505.82 208.36 505.397 209.077ZM426.719 311.77C426.713 312.487 426.707 313.203 426.699 313.917C426.231 313.195 426.324 312.481 426.719 311.77ZM38.4089 162.262C37.8541 163.004 37.0983 162.496 36.4388 162.586C37.0962 162.477 37.7525 162.37 38.4089 162.262ZM78.3381 105.45L76.2241 105.492C76.9212 105.077 77.6238 104.957 78.3381 105.45ZM428.472 92.3492C428.416 92.9736 428.361 93.598 428.306 94.2224L428.472 92.3492ZM471.723 150.207C471.706 149.586 471.689 148.966 471.671 148.347C471.69 148.968 471.706 149.587 471.723 150.207ZM140.427 49.1311H138.467C139.121 48.6777 139.774 48.6891 140.427 49.1311ZM314.94 195.203L312.793 195.258C313.496 194.755 314.212 194.742 314.94 195.202M377.507 363.155C377.932 363.164 378.356 363.173 378.775 363.184C378.349 363.176 377.928 363.165 377.507 363.155ZM511.606 296.752C511.543 296.138 511.48 295.524 511.417 294.913L511.606 296.752ZM146.947 364.577C147.393 364.57 147.838 364.563 148.28 364.557C147.832 364.565 147.389 364.571 146.947 364.577ZM309.297 364.626L310.592 364.567L309.297 364.627M481.939 364.928C482.371 364.959 482.802 364.99 483.228 365.02L481.939 364.928M485.838 364.92C486.278 364.933 486.717 364.947 487.151 364.956C486.71 364.943 486.274 364.931 485.838 364.92ZM130.139 132.142C131.299 132.244 132.46 132.346 133.62 132.447L130.139 132.142ZM481.809 358.735L485.443 358.958C484.224 359.014 482.987 359.365 481.809 358.735ZM471.537 259.858L474.726 259.901L471.537 259.857M466.549 355.131C467.323 355.078 468.096 355.026 468.868 354.974C468.287 355.446 467.702 355.485 466.549 355.131ZM461.373 249.253L461.532 251.87L461.373 249.253M462.31 260.034L465.192 259.97C464.242 260.435 463.28 260.451 462.31 260.034ZM239.97 355.467L242.792 355.504C241.844 355.984 240.902 356.052 239.969 355.467M62.7072 358.27C63.6622 358.183 64.6177 358.097 65.5727 358.011L62.7072 358.27ZM153.354 134.199C154.16 133.798 154.971 133.73 155.79 134.156L153.354 134.199ZM499.863 183.216C499.449 182.493 499.464 181.773 499.883 181.061L499.863 183.216ZM487.179 259.508C488.008 259.251 488.837 258.888 489.662 259.517L487.179 259.508ZM105.053 356.492C105.817 356.152 106.578 355.974 107.331 356.518L105.053 356.492ZM261.278 355.402C262.095 355.042 262.91 354.844 263.716 355.428L261.278 355.402ZM79.473 248.587L79.6567 250.821C79.595 250.075 79.5332 249.331 79.473 248.587ZM269.086 205.647C269.889 205.351 270.69 205.197 271.479 205.691C270.681 205.675 269.884 205.661 269.086 205.647M32.3798 332.304L32.2568 334.015C32.2993 333.443 32.3396 332.874 32.3798 332.305M416.477 354.3L418.624 354.315C417.908 354.309 417.192 354.304 416.477 354.3ZM203.633 246.108L204.034 247.399C203.141 247.618 203.007 247.187 203.633 246.108ZM257.318 204.675L259.5 204.666C258.774 205.014 258.047 205.254 257.318 204.675ZM87.5743 357.204L89.6797 357.203C88.9772 357.203 88.2763 357.204 87.5743 357.204ZM433.616 258.986L433.694 260.784C433.669 260.181 433.642 259.584 433.616 258.986ZM72.6711 357.936C73.3618 357.472 74.0536 357.512 74.7465 357.928L72.6711 357.936ZM90.8463 153.707C90.8834 154.319 90.921 154.932 90.9591 155.541C90.9226 154.927 90.8839 154.317 90.8463 153.707ZM69.0805 357.999L71.2327 358.008C70.513 358.503 69.796 358.527 69.0805 357.999ZM466.428 144.093L466.444 142.228L466.428 144.092M308.122 335.139C307.663 335.147 307.206 335.154 306.752 335.164C307.209 335.157 307.665 335.149 308.122 335.139ZM180.317 308.604C181.241 313.885 173.125 319.048 172.481 311.542C172.246 308.798 174.061 306.869 176.094 305.191C178.98 302.81 180.591 305.089 180.317 308.605M90.849 244.188C92.7611 244.979 107.371 249.792 99.7817 252.212C97.7729 252.853 94.7366 252.948 92.9953 251.82C90.9006 250.461 88.7876 246.452 90.849 244.188ZM94.4444 172.688C99.403 172.106 103.972 180.338 97.8583 180.072C93.4083 179.876 87.4239 172.687 94.4444 172.687M112.182 192.874C116.324 196.526 108.648 204.7 105.601 201.536C104.045 199.921 105.48 196.44 106.765 195.088C108.083 193.7 110.428 193.44 112.182 192.874ZM124.509 287.551C122.065 287.944 111.315 291.495 113.557 285.045C114.412 282.585 116.797 283.315 118.977 283.428C122.491 283.609 124.509 283.439 124.509 287.551ZM117.428 304.165C121.088 306.144 115.739 317.219 112.706 314.863C108.497 311.593 114.252 305.16 117.428 304.165ZM133.388 295.261C135.168 294.527 143.556 302.683 140.362 304.952C138.726 306.115 135.625 304.122 134.638 302.92C132.789 300.665 132.621 297.884 133.388 295.262M84.9929 228.593C86.8116 228.895 89.9515 228.991 90.0691 231.574C90.1723 233.845 87.3567 234.58 85.3737 234.758C83.3166 234.943 80.5935 234.356 80.5543 231.742C80.5129 228.921 84.9285 229.091 84.9929 228.593M129.841 341.016C131.777 342.204 140.811 346.484 136.939 349.576C135.49 350.732 131.097 348.343 130.108 347.129C128.928 345.679 127.775 342.283 129.84 341.016M154.955 309.961C154.675 305.237 162.558 303.357 160.924 310.062C160.463 311.953 160.017 314.822 157.705 314.932C154.972 315.062 154.874 311.793 154.955 309.961ZM130.601 227.816C130.656 231.399 123.864 234.559 123.811 228.879C123.764 223.803 130.855 222.318 130.601 227.815M126.116 209.152C127.79 209.697 130.014 209.977 130.161 212.127C130.317 214.402 128.227 215.415 126.346 215.287C124.803 215.182 122.521 214.028 122.24 212.336C121.829 209.853 124.227 209.69 126.116 209.152ZM94.9944 274.76C94.966 271.803 100.828 268.249 101.908 271.68C102.253 272.778 99.4906 277.701 98.571 278.07C96.1395 279.046 95.8001 276.772 94.9944 274.76ZM143.031 323.976C141.05 325.768 135.108 330.804 135.552 324.045C135.836 319.727 143.553 319.952 143.031 323.976ZM239.841 343.294C240.49 340.452 249.787 345.382 246.684 348.971C245.643 350.177 242.921 349.086 241.874 348.372C239.802 346.959 239.757 345.654 239.841 343.294ZM188.045 282.461C188.407 281.194 188.81 278.953 190.006 278.146C192.169 276.683 194.053 278.889 194.054 281.215C194.054 285.553 189.169 286.922 188.045 282.461ZM165.005 333.184C167.418 333.743 172.793 339.675 169.676 342.094C166.676 344.423 162.686 334.956 165.005 333.184ZM167.302 288.287C170.406 288.537 174.671 293.618 169.848 294.425C166.074 295.057 161.686 289.532 167.302 288.287ZM195.398 311.666C196.177 309.016 203.873 311.856 203.441 314.773C203.211 316.324 200.064 316.689 198.41 316.279C195.975 315.674 195.343 314.06 195.398 311.666ZM104.672 163.649C104.727 160.223 111.24 158.826 111.717 162.279C112.148 165.399 104.589 168.718 104.672 163.649ZM193.247 346.969C193.716 345.246 193.918 343.173 196.047 342.946C198.485 342.685 198.413 344.574 198.126 346.533C197.347 351.859 194.369 352.126 193.247 346.969ZM90.4032 204.413C87.0087 205.187 80.79 198.577 84.5906 197.158C87.2687 196.158 90.4032 202.418 90.4032 204.413ZM133.706 255.758C131.978 256.58 131.58 257.079 130.253 255.73C129.097 254.554 129.148 251.279 130.14 250.056C133.94 245.374 133.85 253.863 133.706 255.758ZM147.804 246.261C149.606 246.493 154.96 251.627 152.172 253.667C148.755 256.167 146.822 248.336 147.804 246.261ZM186.791 247.613C185.481 252.711 182.211 249.281 182.397 245.422C182.694 239.242 186.082 244.624 186.791 247.613ZM206.67 329.507C208.886 330.433 211.894 338.998 208.729 339.456C205.174 339.972 206.358 331.29 206.67 329.507ZM178.996 324.695C181.531 323.83 182.46 329.238 180.987 330.242C177.744 332.452 178.428 325.971 178.996 324.695Z" fill="black"/>
<path fill-rule="evenodd" clip-rule="evenodd" d="M154.955 309.961L154.857 312.11C154.889 311.392 154.921 310.676 154.954 309.961M195.398 311.666C195.384 312.29 195.369 312.915 195.353 313.535C195.367 312.909 195.383 312.287 195.398 311.666ZM475.875 300.92C481.133 300.749 486.997 298.749 492.163 299.385C493.585 299.561 496.859 299.923 494.581 302.055C493.491 303.075 488.274 302.548 486.695 302.886C477.043 304.952 466.085 306.284 456.188 306.112C451.555 306.032 446.888 305.656 442.257 305.409C437.629 305.161 437.174 303.261 442.381 302.656C447.789 302.028 453.339 302.261 458.774 302.254C464.488 302.247 470.173 301.305 475.875 300.92ZM487.417 288.116C486.911 289.572 486.467 292.914 484.528 293.134C481.812 293.44 481.362 288.727 481.462 287.003C481.584 284.922 482.324 281.466 484.883 282.187C487.043 282.795 487.26 286.45 487.417 288.116ZM470.976 287.049C471.373 285.49 471.568 281.973 473.75 281.854C476.188 281.721 476.885 285.384 476.869 287.14C476.853 288.807 476.243 291.954 474.302 292.339C471.669 292.861 471.433 288.831 470.976 287.049ZM443.597 289.846C442.807 291.721 442.284 294.303 439.839 293.025C437.948 292.036 437.685 288.051 438.041 286.225C438.411 284.335 439.193 282.166 441.342 283.016C443.821 283.998 443.57 287.782 443.597 289.846ZM464.331 288.116C462 295.257 457.749 290.425 459.363 285.093C461.051 279.52 464.116 284.933 464.331 288.116ZM452.976 288.469C452.328 289.727 451.64 292.439 449.895 292.154C447.757 291.803 447.688 287.642 447.923 286.092C448.127 284.736 448.73 282.476 450.52 282.505C453.107 282.547 452.933 286.841 452.976 288.469ZM499.464 289.84C497.729 293.775 495.342 290.385 496.106 287.59C497.239 283.446 499.365 287.118 499.464 289.84Z" fill="black"/>
<path fill-rule="evenodd" clip-rule="evenodd" d="M456.976 302.259L451.292 302.238C453.188 301.877 455.084 301.736 456.976 302.259ZM494.628 299.369L489.699 299.402C491.339 298.904 492.982 298.893 494.628 299.369ZM443.597 289.847C443.585 288.892 443.572 287.937 443.561 286.985C444.047 287.934 444.013 288.888 443.597 289.847ZM461.956 302.247L458.774 302.254C459.834 301.802 460.894 301.789 461.956 302.247ZM452.976 288.469C452.949 287.474 452.923 286.48 452.899 285.486C452.926 286.481 452.95 287.475 452.976 288.469ZM499.463 289.84L499.373 287.298L499.463 289.839M127.759 104.304C125.192 103.623 124.71 99.9768 125.123 97.7371L126.526 94.4994L125.979 93.3021C126.213 91.0792 125.613 90.1133 128.14 91.0135C132.834 92.6869 133.585 104.133 127.759 104.304ZM165.754 97.2538C167.869 97.0855 171.71 99.575 169.605 101.984C168.301 103.476 164.003 102.77 162.25 103.082C159.925 103.495 157.5 104.06 158.758 100.539C159.746 97.7745 163.273 97.1816 165.754 97.2538ZM163.529 113.814C161.381 112.073 162.34 104.141 165.609 105.568C168.971 107.037 165.322 112.669 163.529 113.814Z" fill="black"/>
<path fill-rule="evenodd" clip-rule="evenodd" d="M125.123 97.7371C125.123 98.5716 125.122 99.4067 125.121 100.237C124.673 99.4013 124.687 98.5689 125.123 97.7371ZM127.758 104.304C128.196 104.292 128.634 104.279 129.067 104.267C128.627 104.281 128.193 104.293 127.758 104.304ZM392.973 332.713C392.772 336.321 388.94 333.654 389.212 331.24C389.706 326.861 392.155 331.189 392.973 332.713Z" fill="black"/>
</svg>
