<svg width="20" height="28" viewBox="0 0 20 28" fill="none" xmlns="http://www.w3.org/2000/svg">
<path d="M8.41469 0.101212C12.021 0.101212 14.7257 0.551998 16.5289 1.60383C18.4823 2.65567 19.3838 4.45882 19.3838 7.01328C19.3838 8.5159 18.9331 9.86826 18.332 10.9201C17.9913 11.4339 17.5488 11.8723 17.0319 12.2083C16.515 12.5443 15.9346 12.7707 15.3268 12.8735C16.1857 13.0742 17.0006 13.4307 17.731 13.9253C18.332 14.3761 18.9331 15.1274 19.3838 15.8788C19.8541 16.9672 20.0601 18.1515 19.9849 19.3348C20.038 20.4204 19.8344 21.5032 19.3905 22.4953C18.9467 23.4874 18.2752 24.3609 17.4304 25.0448C15.2914 26.5724 12.6908 27.3155 10.0676 27.1484H0V0.101212H8.41469ZM9.01574 10.7698C10.6686 10.7698 11.8707 10.6196 12.4718 10.0185C13.2231 9.56774 13.5236 8.66616 13.5236 7.76459C13.5236 6.71275 13.0728 5.96144 12.3215 5.51065C11.5702 5.05987 10.3681 4.75934 8.71521 4.75934H5.70997V10.7698H9.01574ZM5.70997 15.2777V22.6406H9.46653C11.1194 22.6406 12.4718 22.1898 13.0728 21.5887C13.8241 20.8374 14.1247 20.0861 14.1247 18.884C14.1426 18.4298 14.0572 17.9775 13.875 17.561C13.6928 17.1446 13.4185 16.7749 13.0728 16.4798C12.3215 15.8788 11.1194 15.5782 9.31626 15.5782H5.55971L5.70997 15.2777Z" fill="#004AAB"/>
</svg>
